<?xml version="1.0" encoding="UTF-8"?>
<!DOCTYPE svg PUBLIC "-//W3C//DTD SVG 1.1//EN" "http://www.w3.org/Graphics/SVG/1.1/DTD/svg11.dtd">
<svg xmlns="http://www.w3.org/2000/svg" version="1.1" width="170px" height="170px" style="shape-rendering:geometricPrecision; text-rendering:geometricPrecision; image-rendering:optimizeQuality; fill-rule:evenodd; clip-rule:evenodd" xmlns:xlink="http://www.w3.org/1999/xlink">
<g><path style="opacity:0.734" fill="#000000" d="M 70.5,-0.5 C 79.8333,-0.5 89.1667,-0.5 98.5,-0.5C 137.167,8.16667 160.833,31.8333 169.5,70.5C 169.5,79.8333 169.5,89.1667 169.5,98.5C 160.833,137.167 137.167,160.833 98.5,169.5C 89.1667,169.5 79.8333,169.5 70.5,169.5C 31.8333,160.833 8.16667,137.167 -0.5,98.5C -0.5,89.1667 -0.5,79.8333 -0.5,70.5C 8.16667,31.8333 31.8333,8.16667 70.5,-0.5 Z M 73.5,3.5 C 113.949,1.1303 142.782,18.1303 160,54.5C 172.971,95.9218 161.804,129.088 126.5,154C 87.2952,173.938 52.4619,168.105 22,136.5C 0.0373689,106.687 -2.29596,75.3532 15,42.5C 28.9408,21.1161 48.4408,8.1161 73.5,3.5 Z"/></g>
<g><path style="opacity:0.936" fill="#0b0d0d" d="M 62.5,50.5 C 92.1685,50.3334 121.835,50.5 151.5,51C 152.66,73.0939 152.827,95.2606 152,117.5C 122.238,118.662 92.4052,118.828 62.5,118C 60.5561,115.847 60.0561,113.347 61,110.5C 71.0072,101.99 80.8405,93.3238 90.5,84.5C 80.8405,75.6762 71.0072,67.0095 61,58.5C 60.1093,55.5024 60.6093,52.8357 62.5,50.5 Z"/></g>
<g><path style="opacity:1" fill="#1c2628" d="M 145.5,56.5 C 119.661,56.1689 93.9946,56.5022 68.5,57.5C 67.9569,57.44 67.6236,57.1067 67.5,56.5C 93.6636,55.1708 119.664,55.1708 145.5,56.5 Z"/></g>
<g><path style="opacity:1" fill="#6d9ba5" d="M 145.5,56.5 C 145.167,57.5 144.5,58.1667 143.5,58.5C 118.833,57.1667 94.1667,57.1667 69.5,58.5C 68.8333,58.5 68.5,58.1667 68.5,57.5C 93.9946,56.5022 119.661,56.1689 145.5,56.5 Z"/></g>
<g><path style="opacity:1" fill="#77adb9" d="M 69.5,58.5 C 94.1667,57.1667 118.833,57.1667 143.5,58.5C 131.799,69.8578 119.465,80.5245 106.5,90.5C 94.1471,79.8107 81.8137,69.144 69.5,58.5 Z"/></g>
<g><path style="opacity:0.745" fill="#050505" d="M 17.5,63.5 C 31.8372,63.3334 46.1705,63.5001 60.5,64C 64.5,66.3333 64.5,68.6667 60.5,71C 46.1667,71.6667 31.8333,71.6667 17.5,71C 14.9387,68.5103 14.9387,66.0103 17.5,63.5 Z"/></g>
<g><path style="opacity:1" fill="#77acb7" d="M 147.5,62.5 C 147.829,77.3428 147.496,92.0095 146.5,106.5C 138.161,99.1602 129.828,91.8269 121.5,84.5C 129.868,76.7978 138.534,69.4645 147.5,62.5 Z"/></g>
<g><path style="opacity:1" fill="#3e575d" d="M 147.5,62.5 C 148.826,77.3386 148.826,92.3386 147.5,107.5C 146.893,107.376 146.56,107.043 146.5,106.5C 147.496,92.0095 147.829,77.3428 147.5,62.5 Z"/></g>
<g><path style="opacity:0.787" fill="#060606" d="M 33.5,81.5 C 48.5037,81.3334 63.5037,81.5001 78.5,82C 81.3264,84.5219 80.9931,86.5219 77.5,88C 63.1667,88.6667 48.8333,88.6667 34.5,88C 30.8995,86.3595 30.5662,84.1928 33.5,81.5 Z"/></g>
<g><path style="opacity:1" fill="#78adb9" d="M 94.5,88.5 C 95.552,88.3505 96.552,88.5172 97.5,89C 100.432,91.6145 103.599,93.7811 107,95.5C 110.596,93.4205 114.096,91.0871 117.5,88.5C 126.98,96.1453 136.313,103.979 145.5,112C 119.833,112.667 94.1667,112.667 68.5,112C 77.4286,104.384 86.0953,96.5503 94.5,88.5 Z"/></g>
<g><path style="opacity:0.761" fill="#050505" d="M 17.5,98.5 C 31.8372,98.3334 46.1705,98.5001 60.5,99C 63.9931,100.478 64.3264,102.478 61.5,105C 46.1703,105.5 30.837,105.667 15.5,105.5C 15.1849,102.789 15.8516,100.456 17.5,98.5 Z"/></g>
</svg>
